<svg width="21" height="21" viewBox="0 0 21 21" fill="none" xmlns="http://www.w3.org/2000/svg">
<g clip-path="url(#clip0_94_378)">
<path fill-rule="evenodd" clip-rule="evenodd" d="M18.6231 19.9559H1.59913C0.783131 19.9559 0.122131 19.3769 0.122131 18.6629V3.22486C0.122131 2.51186 0.783131 1.93286 1.59913 1.93286H18.6231C19.4381 1.93286 20.0991 2.51186 20.0991 3.22486V18.6629C20.0991 19.3769 19.4381 19.9559 18.6231 19.9559ZM3.58413 16.9869H6.52613V8.84986H3.58413V16.9869ZM5.07513 4.92786C4.06813 4.92786 3.41113 5.53486 3.41113 6.33386C3.41113 7.11386 4.04913 7.73986 5.03613 7.73986H5.05513C6.08113 7.73986 6.71913 7.11386 6.71913 6.33386C6.70113 5.53486 6.08113 4.92786 5.07513 4.92786ZM17.1341 12.3219C17.1341 9.82186 15.6821 8.65886 13.7471 8.65886C12.1851 8.65886 11.4871 9.44786 11.0961 10.0029V8.84986H8.15413C8.19313 9.61386 8.15413 16.9869 8.15413 16.9869H11.0961V12.4429C11.0961 12.2009 11.1151 11.9569 11.1931 11.7839C11.4051 11.2979 11.8901 10.7949 12.7021 10.7949C13.7671 10.7949 14.1921 11.5409 14.1921 12.6349V16.9869H17.1341V12.3219ZM11.0761 10.0299C11.0821 10.0209 11.0901 10.0119 11.0961 10.0029V10.0299H11.0761Z" fill="white"/>
</g>
<defs>
<clipPath id="clip0_94_378">
<rect width="20" height="20" fill="white" transform="translate(0.111145 0.942871)"/>
</clipPath>
</defs>
</svg>
