<svg width="76" height="93" viewBox="0 0 76 93" fill="none" xmlns="http://www.w3.org/2000/svg">
<path d="M16.6467 42L16.6154 33.0236C16.5767 15.0079 23.6849 6 37.94 6C52.1952 6 59.2931 15.0079 59.2338 33.0236V42M16.6467 42H59.3533C65.2333 42 70 46.0294 70 51C70 51.0085 70 51.0169 70 51.0254L69.91 78.0254C69.8934 82.986 65.1316 87 59.2633 87H16.6467C10.7667 87 6 82.9706 6 78V51C6 46.0294 10.7667 42 16.6467 42Z" stroke="#2A2E3B" stroke-width="10.8046" stroke-linecap="round" stroke-linejoin="round"/>
<path d="M37.9401 71.25C42.3501 71.25 45.9251 68.2279 45.9251 64.5C45.9251 60.7721 42.3501 57.75 37.9401 57.75C33.5301 57.75 29.9551 60.7721 29.9551 64.5C29.9551 68.2279 33.5301 71.25 37.9401 71.25Z" fill="#2A2E3B"/>
</svg>
