<svg width="16" height="11" viewBox="0 0 16 11" fill="none" xmlns="http://www.w3.org/2000/svg">
<path d="M8.02174 7.24161C8.3117 7.24161 8.58781 7.14355 8.79891 6.96564L8.02174 7.24161ZM8.02174 7.24161C7.73068 7.24161 7.45483 7.14412 7.24429 6.96705L8.02174 7.24161ZM8.12958 6.1475L8.12956 6.14748L8.12526 6.1504C8.10015 6.16744 8.06302 6.17999 8.02286 6.17999H8.01953C7.95988 6.17999 7.92288 6.15974 7.91234 6.15078L7.91165 6.15019L1.3225 0.571509H14.7122L8.43015 5.89657L8.42977 5.89689L8.15325 6.13189L8.12958 6.1475ZM0.622229 9.056V1.8838L4.90039 5.50602L0.622229 9.056ZM9.97823 6.49016L14.7849 10.4572H1.21024L6.02754 6.46049L6.98573 7.27225L6.98683 7.27318C7.27378 7.51452 7.64229 7.64161 8.02174 7.64161C8.40091 7.64161 8.76963 7.51343 9.05668 7.2715L9.05759 7.27074L9.97823 6.49016ZM15.3778 1.91397V9.06111L11.1059 5.53488L15.3778 1.91397Z" stroke="white" stroke-width="0.8"/>
</svg>
