<svg width="16" height="17" viewBox="0 0 16 17" fill="none" xmlns="http://www.w3.org/2000/svg">
<mask id="path-1-inside-1_94_369" fill="white">
<path d="M15.7805 12.7522C15.8135 13.0046 15.7365 13.2242 15.5498 13.4107L13.3582 15.584C13.2593 15.6938 13.1303 15.7872 12.971 15.8639C12.8117 15.9408 12.6552 15.9902 12.5014 16.0121C12.4904 16.0121 12.4574 16.0149 12.4025 16.0204C12.3476 16.0259 12.2762 16.0287 12.1883 16.0287C11.9795 16.0287 11.6417 15.993 11.1748 15.9216C10.7079 15.8503 10.1367 15.6746 9.46116 15.3948C8.78544 15.1149 8.01922 14.6949 7.16238 14.1352C6.30553 13.5755 5.3937 12.8071 4.42697 11.8301C3.65799 11.0727 3.02082 10.3483 2.51549 9.65679C2.01015 8.96524 1.60369 8.32585 1.29609 7.73861C0.988471 7.15136 0.757774 6.619 0.603977 6.14151C0.450179 5.66403 0.345816 5.25241 0.290889 4.90665C0.235961 4.56089 0.21399 4.28922 0.224975 4.09164C0.235961 3.89406 0.241454 3.7843 0.241454 3.76234C0.263425 3.60867 0.31286 3.45226 0.389759 3.2931C0.466657 3.13394 0.560035 3.00496 0.66989 2.90617L2.86151 0.716348C3.0153 0.562676 3.19107 0.48584 3.38881 0.48584C3.53163 0.48584 3.65796 0.527002 3.76781 0.609326C3.87767 0.69165 3.97105 0.793184 4.04795 0.913926L5.81113 4.25629C5.91 4.43191 5.93746 4.624 5.89352 4.83256C5.84958 5.04111 5.7562 5.21674 5.61339 5.35943L4.80595 6.16621C4.78398 6.18817 4.76475 6.22384 4.74827 6.27323C4.7318 6.32263 4.72356 6.36379 4.72356 6.39672C4.7675 6.62723 4.86637 6.89067 5.02017 7.18703C5.15199 7.45047 5.35523 7.77153 5.62986 8.15023C5.9045 8.52892 6.29449 8.96521 6.79983 9.45915C7.29418 9.96413 7.7336 10.3565 8.11809 10.6364C8.50251 10.9162 8.82394 11.1221 9.0821 11.2538C9.34026 11.3856 9.538 11.4651 9.67529 11.4925L9.88122 11.5337C9.90319 11.5337 9.93897 11.5254 9.98835 11.509C10.0378 11.4925 10.0735 11.4733 10.0955 11.4513L11.0347 10.4964C11.2326 10.3208 11.4632 10.233 11.7268 10.233C11.9137 10.233 12.0619 10.2659 12.1717 10.3318H12.1882L15.3685 12.2088C15.5992 12.3516 15.7365 12.5326 15.7805 12.7522Z"/>
</mask>
<path d="M15.7805 12.7522L16.7721 12.6226L16.7677 12.589L16.761 12.5558L15.7805 12.7522ZM15.5498 13.4107L16.254 14.1208L16.2567 14.118L15.5498 13.4107ZM13.3582 15.584L12.6541 14.874L12.634 14.8938L12.6152 14.9148L13.3582 15.584ZM12.971 15.8639L12.5369 14.9631L12.5364 14.9633L12.971 15.8639ZM12.5014 16.0121V17.0121H12.5724L12.6426 17.0021L12.5014 16.0121ZM12.4025 16.0204L12.5015 17.0155L12.5018 17.0155L12.4025 16.0204ZM9.46116 15.3948L9.84387 14.4709L9.84385 14.4709L9.46116 15.3948ZM7.16238 14.1352L7.70929 13.298L7.70927 13.298L7.16238 14.1352ZM4.42697 11.8301L5.13785 11.1267L5.12868 11.1177L4.42697 11.8301ZM2.51549 9.65679L1.70808 10.2468L1.7081 10.2468L2.51549 9.65679ZM1.29609 7.73861L2.18193 7.27461L2.18191 7.27458L1.29609 7.73861ZM0.241454 3.76234L-0.74848 3.62081L-0.758546 3.69122V3.76234H0.241454ZM0.66989 2.90617L1.33855 3.64974L1.35811 3.63215L1.37671 3.61357L0.66989 2.90617ZM2.86151 0.716348L3.56832 1.42374H3.56832L2.86151 0.716348ZM4.04795 0.913926L4.93242 0.447342L4.91336 0.411202L4.89141 0.376738L4.04795 0.913926ZM5.81113 4.25629L4.92665 4.72287L4.93302 4.73495L4.93972 4.74686L5.81113 4.25629ZM5.61339 5.35943L4.90657 4.65204V4.65204L5.61339 5.35943ZM4.80595 6.16621L5.51277 6.87361L5.51277 6.87361L4.80595 6.16621ZM4.72356 6.39672H3.72356V6.49119L3.74125 6.58398L4.72356 6.39672ZM5.02017 7.18703L5.91445 6.73953L5.91116 6.73295L5.90777 6.72642L5.02017 7.18703ZM6.79983 9.45915L7.51441 8.75961L7.5067 8.75173L7.49883 8.74403L6.79983 9.45915ZM8.11809 10.6364L7.52947 11.4449L7.52962 11.445L8.11809 10.6364ZM9.67529 11.4925L9.87143 10.5119L9.87074 10.5118L9.67529 11.4925ZM9.88122 11.5337L9.68508 12.5143L9.78219 12.5337H9.88122V11.5337ZM9.98835 11.509L10.3042 12.4578L10.3048 12.4576L9.98835 11.509ZM10.0955 11.4513L10.8023 12.1588L10.8084 12.1526L10.0955 11.4513ZM11.0347 10.4964L10.3709 9.74848L10.3456 9.77099L10.3218 9.79517L11.0347 10.4964ZM12.1717 10.3318L11.6574 11.1894L11.8948 11.3318H12.1717V10.3318ZM12.1882 10.3318L12.6965 9.47057L12.4613 9.33176H12.1882V10.3318ZM15.3685 12.2088L15.8947 11.3584L15.8858 11.3529L15.8767 11.3476L15.3685 12.2088ZM14.7889 12.8817C14.7871 12.8677 14.7858 12.8267 14.8038 12.7755C14.8213 12.7255 14.8444 12.7019 14.8429 12.7035L16.2567 14.118C16.6534 13.7216 16.8471 13.1965 16.7721 12.6226L14.7889 12.8817ZM14.8457 12.7007L12.6541 14.874L14.0623 16.2941L16.2539 14.1208L14.8457 12.7007ZM12.6152 14.9148C12.6183 14.9113 12.6012 14.9321 12.5369 14.9631L13.4051 16.7648C13.6593 16.6423 13.9004 16.4763 14.1012 16.2533L12.6152 14.9148ZM12.5364 14.9633C12.4571 15.0016 12.3992 15.0166 12.3602 15.0221L12.6426 17.0021C12.9112 16.9638 13.1663 16.88 13.4056 16.7646L12.5364 14.9633ZM12.5014 15.0121C12.4272 15.0121 12.3296 15.0227 12.3031 15.0254L12.5018 17.0155C12.5142 17.0142 12.5247 17.0132 12.5334 17.0124C12.5422 17.0116 12.5484 17.011 12.5525 17.0107C12.5545 17.0105 12.5555 17.0104 12.5557 17.0104C12.5561 17.0104 12.5549 17.0105 12.5526 17.0106C12.5506 17.0107 12.5457 17.011 12.5389 17.0113C12.5354 17.0115 12.5305 17.0117 12.5247 17.0118C12.5191 17.012 12.5111 17.0121 12.5014 17.0121V15.0121ZM12.3034 15.0253C12.2944 15.0262 12.2593 15.0287 12.1883 15.0287V17.0287C12.2931 17.0287 12.4009 17.0255 12.5015 17.0155L12.3034 15.0253ZM12.1883 15.0287C12.0618 15.0287 11.7891 15.0039 11.3259 14.9331L11.0237 16.9101C11.4943 16.9821 11.8973 17.0287 12.1883 17.0287V15.0287ZM11.3259 14.9331C10.9695 14.8786 10.4809 14.7348 9.84387 14.4709L9.07845 16.3186C9.79248 16.6144 10.4464 16.8219 11.0237 16.9101L11.3259 14.9331ZM9.84385 14.4709C9.2431 14.222 8.53312 13.8362 7.70929 13.298L6.61547 14.9724C7.50532 15.5537 8.32777 16.0077 9.07846 16.3186L9.84385 14.4709ZM7.70927 13.298C6.92786 12.7875 6.07054 12.0693 5.13779 11.1267L3.71616 12.5335C4.71687 13.5448 5.6832 14.3634 6.61548 14.9724L7.70927 13.298ZM5.12868 11.1177C4.38876 10.3889 3.7894 9.70516 3.32287 9.06676L1.7081 10.2468C2.25225 10.9914 2.92721 11.7566 3.72526 12.5426L5.12868 11.1177ZM3.3229 9.06679C2.83883 8.40435 2.46103 7.80745 2.18193 7.27461L0.410256 8.2026C0.746346 8.84425 1.18148 9.52612 1.70808 10.2468L3.3229 9.06679ZM2.18191 7.27458C1.89288 6.72281 1.68761 6.24408 1.55582 5.83492L-0.347865 6.44811C-0.172061 6.99391 0.0840663 7.57991 0.410272 8.20263L2.18191 7.27458ZM1.55582 5.83492C1.41164 5.38732 1.32275 5.02825 1.2785 4.74976L-0.696727 5.06354C-0.631113 5.47657 -0.511284 5.94075 -0.347865 6.44811L1.55582 5.83492ZM1.2785 4.74976C1.22762 4.42943 1.2183 4.23951 1.22343 4.14716L-0.773482 4.03613C-0.790318 4.33893 -0.755695 4.69235 -0.696727 5.06354L1.2785 4.74976ZM1.22343 4.14716C1.23314 3.97253 1.24145 3.8206 1.24145 3.76234H-0.758546C-0.758546 3.74887 -0.758216 3.74025 -0.758315 3.74343C-0.758339 3.7442 -0.758445 3.74732 -0.758708 3.75361C-0.759228 3.76609 -0.760104 3.78492 -0.761416 3.81116C-0.764025 3.86329 -0.768025 3.93798 -0.773482 4.03613L1.22343 4.14716ZM1.23139 3.90388C1.23693 3.86508 1.25193 3.80728 1.29017 3.72813L-0.510654 2.85806C-0.626213 3.09724 -0.710085 3.35227 -0.74848 3.62081L1.23139 3.90388ZM1.29017 3.72813C1.32144 3.66341 1.34222 3.64644 1.33855 3.64974L0.00122774 2.16261C-0.222147 2.36348 -0.388127 2.60446 -0.510654 2.85806L1.29017 3.72813ZM1.37671 3.61357L3.56832 1.42374L2.15469 0.00895169L-0.0369274 2.19878L1.37671 3.61357ZM3.56832 1.42374C3.56872 1.42335 3.54976 1.44202 3.50923 1.45974C3.46687 1.47826 3.42345 1.48584 3.38881 1.48584V-0.51416C2.89836 -0.51416 2.4755 -0.311599 2.15469 0.00895172L3.56832 1.42374ZM3.38881 1.48584C3.36288 1.48584 3.32497 1.48188 3.28088 1.46752C3.23637 1.45301 3.19798 1.43193 3.16813 1.40956L4.3675 -0.190909C4.07728 -0.408398 3.73852 -0.51416 3.38881 -0.51416V1.48584ZM3.16813 1.40956C3.17744 1.41654 3.18952 1.42762 3.20448 1.45111L4.89141 0.376738C4.75257 0.158748 4.5779 -0.0332395 4.3675 -0.190909L3.16813 1.40956ZM3.16347 1.38051L4.92665 4.72287L6.6956 3.78971L4.93242 0.447342L3.16347 1.38051ZM4.93972 4.74686C4.93075 4.73092 4.92043 4.70498 4.91594 4.67361C4.91159 4.64314 4.91525 4.62523 4.915 4.62639L6.87203 5.03873C6.96289 4.60751 6.90775 4.16578 6.68253 3.76572L4.93972 4.74686ZM4.915 4.62639C4.91293 4.63624 4.91092 4.64264 4.90964 4.64622C4.90838 4.64975 4.90758 4.65122 4.90757 4.65124C4.90754 4.6513 4.90759 4.65119 4.90774 4.65097C4.90788 4.65074 4.90803 4.65052 4.90815 4.65036C4.90847 4.64994 4.90814 4.65047 4.90657 4.65204L6.3202 6.06683C6.60812 5.77915 6.79042 5.42606 6.87203 5.03873L4.915 4.62639ZM4.90657 4.65204L4.09913 5.45882L5.51277 6.87361L6.3202 6.06683L4.90657 4.65204ZM4.09913 5.45882C3.91685 5.64095 3.8362 5.84726 3.79967 5.95677L5.69688 6.58969C5.69178 6.60499 5.67942 6.63919 5.65536 6.68384C5.63202 6.72715 5.58792 6.79852 5.51277 6.87361L4.09913 5.45882ZM3.79967 5.95677C3.76653 6.0561 3.72356 6.21241 3.72356 6.39672H5.72356C5.72356 6.46123 5.71576 6.51006 5.71029 6.53742C5.7046 6.56581 5.69879 6.58396 5.69688 6.58969L3.79967 5.95677ZM3.74125 6.58398C3.80922 6.94053 3.95133 7.2984 4.13257 7.64765L5.90777 6.72642C5.78141 6.48293 5.72578 6.31392 5.70587 6.20946L3.74125 6.58398ZM4.12589 7.63454C4.29199 7.96647 4.52997 8.33693 4.82034 8.73732L6.43939 7.56314C6.18048 7.20614 6.012 6.93447 5.91445 6.73953L4.12589 7.63454ZM4.82034 8.73732C5.14033 9.17854 5.57331 9.65865 6.10082 10.1743L7.49883 8.74403C7.01567 8.27177 6.66868 7.8793 6.43939 7.56314L4.82034 8.73732ZM6.08524 10.1587C6.60179 10.6864 7.08417 11.1206 7.52947 11.4449L8.70671 9.82803C8.38303 9.59236 7.98657 9.24191 7.51441 8.75961L6.08524 10.1587ZM7.52962 11.445C7.93322 11.7387 8.30264 11.9788 8.62762 12.1446L9.53658 10.3631C9.34524 10.2655 9.07179 10.0938 8.70657 9.82793L7.52962 11.445ZM8.62762 12.1446C8.89961 12.2834 9.19989 12.4174 9.47985 12.4732L9.87074 10.5118C9.88563 10.5148 9.86515 10.5119 9.7973 10.4846C9.73384 10.4591 9.64789 10.4199 9.53658 10.3631L8.62762 12.1446ZM9.47916 12.4731L9.68508 12.5143L10.0774 10.5531L9.87143 10.5119L9.47916 12.4731ZM9.88122 12.5337C10.0814 12.5337 10.2546 12.4743 10.3042 12.4578L9.67251 10.5602C9.66644 10.5622 9.67712 10.5583 9.69981 10.5531C9.71172 10.5503 9.73204 10.546 9.75882 10.5422C9.78425 10.5386 9.82692 10.5337 9.88122 10.5337V12.5337ZM10.3048 12.4576C10.4135 12.4213 10.62 12.3409 10.8023 12.1587L9.38867 10.744C9.46387 10.6688 9.53528 10.6248 9.57848 10.6016C9.62299 10.5776 9.65698 10.5654 9.67189 10.5604L10.3048 12.4576ZM10.8084 12.1526L11.7477 11.1976L10.3218 9.79517L9.38254 10.7501L10.8084 12.1526ZM11.6985 11.2443C11.7067 11.2371 11.7115 11.2339 11.713 11.233C11.7143 11.2322 11.7137 11.2327 11.7118 11.2334C11.7099 11.2341 11.7091 11.2342 11.7102 11.234C11.7114 11.2338 11.7166 11.233 11.7268 11.233V9.23298C11.2174 9.23298 10.7509 9.4112 10.3709 9.74848L11.6985 11.2443ZM11.7268 11.233C11.7633 11.233 11.7725 11.2364 11.7614 11.2339C11.7496 11.2313 11.7099 11.2209 11.6574 11.1894L12.6861 9.47418C12.3653 9.28181 12.0168 9.23298 11.7268 9.23298V11.233ZM12.1717 11.3318H12.1882V9.33176H12.1717V11.3318ZM11.6799 11.193L14.8602 13.07L15.8767 11.3476L12.6965 9.47057L11.6799 11.193ZM14.8423 13.0591C14.8729 13.0781 14.8663 13.0803 14.8477 13.0559C14.8385 13.0437 14.8281 13.0272 14.819 13.007C14.8098 12.9867 14.8036 12.9666 14.8 12.9485L16.761 12.5558C16.6514 12.0083 16.307 11.6136 15.8947 11.3584L14.8423 13.0591Z" fill="white" mask="url(#path-1-inside-1_94_369)"/>
</svg>
