<svg width="229" height="219" viewBox="0 0 229 219" fill="none" xmlns="http://www.w3.org/2000/svg">
<path fill-rule="evenodd" clip-rule="evenodd" d="M114.5 0C144.867 0 173.991 11.5366 195.464 32.0718C216.937 52.607 229 80.4588 229 109.5C229 169.975 177.737 219 114.5 219C51.2634 219 0 169.975 0 109.5C0 49.0248 51.2634 0 114.5 0ZM125.95 120.45H103.05C74.7034 120.45 50.3665 136.868 39.8703 160.305C56.4785 182.577 83.7158 197.1 114.5 197.1C145.284 197.1 172.522 182.577 189.13 160.304C178.633 136.868 154.297 120.45 125.95 120.45ZM114.5 32.85C95.529 32.85 80.15 47.5574 80.15 65.7C80.15 83.8426 95.529 98.55 114.5 98.55C133.471 98.55 148.85 83.8426 148.85 65.7C148.85 47.5574 133.471 32.85 114.5 32.85Z" fill="black"/>
</svg>
