<svg width="15" height="20" viewBox="0 0 15 20" fill="none" xmlns="http://www.w3.org/2000/svg">
<g clip-path="url(#clip0_94_385)">
<path fill-rule="evenodd" clip-rule="evenodd" d="M7.53512 0.942871C2.60012 0.942871 0.112122 4.46487 0.112122 7.40287C0.112122 9.18087 0.788122 10.7629 2.23912 11.3529C2.47712 11.4499 2.69012 11.3559 2.75912 11.0939C2.80712 10.9129 2.92112 10.4549 2.97112 10.2639C3.04112 10.0049 3.01412 9.91387 2.82212 9.68787C2.40312 9.19687 2.13612 8.56087 2.13612 7.65987C2.13612 5.04687 4.10012 2.70787 7.25012 2.70787C10.0391 2.70787 11.5711 4.40487 11.5711 6.66987C11.5711 9.65187 10.2461 12.1679 8.27812 12.1679C7.19212 12.1679 6.37912 11.2729 6.63912 10.1759C6.95212 8.86687 7.55612 7.45287 7.55612 6.50687C7.55612 5.66087 7.10012 4.95487 6.15512 4.95487C5.04512 4.95487 4.15312 6.09887 4.15312 7.63087C4.15312 8.60787 4.48412 9.26787 4.48412 9.26787C4.48412 9.26787 3.34712 14.0619 3.14812 14.9019C2.75112 16.5739 3.08912 18.6239 3.11712 18.8319C3.13412 18.9539 3.29212 18.9829 3.36412 18.8909C3.46612 18.7569 4.78912 17.1319 5.23912 15.5069C5.36612 15.0469 5.96912 12.6649 5.96912 12.6649C6.33012 13.3499 7.38512 13.9539 8.50612 13.9539C11.8451 13.9539 14.1101 10.9229 14.1101 6.86687C14.1101 3.79987 11.5011 0.942871 7.53512 0.942871Z" fill="white"/>
</g>
<defs>
<clipPath id="clip0_94_385">
<rect width="14" height="19" fill="white" transform="translate(0.111145 0.942871)"/>
</clipPath>
</defs>
</svg>
