<svg width="22" height="17" viewBox="0 0 22 17" fill="none" xmlns="http://www.w3.org/2000/svg">
<path fill-rule="evenodd" clip-rule="evenodd" d="M21.1191 2.83885C20.3461 3.16085 19.5151 3.37585 18.6441 3.47385C19.5341 2.97385 20.2171 2.18185 20.5391 1.23985C19.7051 1.70185 18.7831 2.03785 17.8011 2.21985C17.0161 1.43385 15.8951 0.943848 14.6561 0.943848C12.2761 0.943848 10.3451 2.75285 10.3451 4.98285C10.3451 5.29985 10.3831 5.60885 10.4571 5.90385C6.87514 5.73485 3.69914 4.12685 1.57315 1.68385C1.20215 2.28085 0.990145 2.97385 0.990145 3.71485C0.990145 5.11485 1.75115 6.35285 2.90715 7.07685C2.20115 7.05485 1.53715 6.87385 0.955145 6.57085C0.955145 6.58885 0.955145 6.60385 0.955145 6.62285C0.955145 8.57985 2.44015 10.2118 4.41215 10.5828C4.05115 10.6748 3.66914 10.7228 3.27714 10.7228C2.99915 10.7228 2.72915 10.6988 2.46615 10.6528C3.01414 12.2558 4.60614 13.4248 6.49215 13.4578C5.01715 14.5408 3.15914 15.1858 1.13915 15.1858C0.791145 15.1858 0.448145 15.1668 0.111145 15.1298C2.01814 16.2748 4.28414 16.9448 6.71814 16.9448C14.6461 16.9448 18.9811 10.7888 18.9811 5.45185C18.9811 5.27585 18.9761 5.10285 18.9681 4.92885C19.8101 4.35885 20.5411 3.64785 21.1191 2.83885Z" fill="white"/>
</svg>
