<svg width="124" height="124" viewBox="0 0 124 124" fill="none" xmlns="http://www.w3.org/2000/svg">
<path d="M-6.10352e-05 0H78.5214C103.639 0 124 20.3614 124 45.4785V124H45.4785C20.3614 124 -6.10352e-05 103.638 -6.10352e-05 78.5213V0Z" fill="url(#paint0_linear_94_257)"/>
<path d="M45.5453 79V71.992C45.7159 71.3733 46.2493 70.552 47.1453 69.528C48.0626 68.4827 49.1719 67.3413 50.4733 66.104C51.7959 64.8667 53.1719 63.6187 54.6013 62.36C56.0306 61.1013 57.3639 59.9387 58.6013 58.872C60.0946 57.5707 61.5559 56.216 62.9853 54.808C64.4146 53.4 65.5986 51.9173 66.5373 50.36C67.4759 48.8027 67.9453 47.1493 67.9453 45.4C67.9453 43.0747 67.3906 41.2507 66.2813 39.928C65.1719 38.584 63.4759 37.912 61.1933 37.912C59.3373 37.912 57.8653 38.3173 56.7773 39.128C55.6893 39.9173 54.9106 41.0267 54.4413 42.456C53.9719 43.8853 53.7373 45.5493 53.7373 47.448H45.2573C45.2573 44.1413 45.8653 41.272 47.0813 38.84C48.2973 36.3867 50.0999 34.488 52.4893 33.144C54.8786 31.8 57.8119 31.128 61.2893 31.128C64.6386 31.128 67.4333 31.7573 69.6733 33.016C71.9133 34.2533 73.5879 35.96 74.6973 38.136C75.8279 40.2907 76.3933 42.7333 76.3933 45.464C76.3933 47.32 76.0413 49.0693 75.3372 50.712C74.6546 52.3333 73.7586 53.848 72.6493 55.256C71.5399 56.664 70.3559 57.9547 69.0973 59.128C67.8386 60.3013 66.6333 61.368 65.4813 62.328C63.6039 63.864 61.9293 65.2827 60.4573 66.584C59.0066 67.864 57.8226 68.984 56.9053 69.944C56.0093 70.904 55.4546 71.6933 55.2413 72.312H76.3293V79H45.5453Z" fill="white"/>
<defs>
<linearGradient id="paint0_linear_94_257" x1="61.9999" y1="0" x2="61.9999" y2="124" gradientUnits="userSpaceOnUse">
<stop stop-color="#42408E"/>
<stop offset="1" stop-color="#BC4141"/>
</linearGradient>
</defs>
</svg>
