<svg width="124" height="124" viewBox="0 0 124 124" fill="none" xmlns="http://www.w3.org/2000/svg">
<path d="M-6.10352e-05 62.0001C-6.10352e-05 27.7584 27.7583 0 62 0C96.2417 0 124 27.7584 124 62.0001V124H-6.10352e-05V62.0001Z" fill="url(#paint0_linear_94_250)"/>
<path d="M69.5255 45.704V93H61.1415V53.864C60.9282 54.0773 60.3628 54.3653 59.4455 54.728C58.5495 55.0693 57.4615 55.4 56.1815 55.72C54.9228 56.0187 53.6108 56.232 52.2455 56.36V49.512C53.6108 49.3413 54.9228 49.0427 56.1815 48.616C57.4615 48.1893 58.5602 47.72 59.4775 47.208C60.3948 46.6747 61.0135 46.1733 61.3335 45.704H69.5255Z" fill="white"/>
<defs>
<linearGradient id="paint0_linear_94_250" x1="62" y1="0" x2="62" y2="124" gradientUnits="userSpaceOnUse">
<stop stop-color="#42408E"/>
<stop offset="0.92" stop-color="#BC4141"/>
</linearGradient>
</defs>
</svg>
