<svg width="13" height="19" viewBox="0 0 13 19" fill="none" xmlns="http://www.w3.org/2000/svg">
<path d="M1.89286 10.9045L1.88729 10.8968L1.88142 10.8892C1.02506 9.78485 0.639087 8.29052 0.737106 6.80548C0.835116 5.32057 1.41358 3.89518 2.42075 2.92102C4.695 0.721626 8.3887 0.72166 10.6626 2.921C11.6697 3.89515 12.2482 5.32057 12.3462 6.80548C12.4443 8.29052 12.0583 9.78485 11.2019 10.8892L11.1961 10.8968L11.1905 10.9045L6.54167 17.3982L1.89286 10.9045ZM4.01723 6.82412C4.01723 8.23023 5.19075 9.34172 6.60321 9.34172C8.01567 9.34172 9.18919 8.23023 9.18919 6.82412C9.18919 5.41801 8.01567 4.30652 6.60321 4.30652C5.19075 4.30652 4.01723 5.41801 4.01723 6.82412Z" stroke="white"/>
</svg>
